<?xml version="1.0" standalone="no"?>
<!DOCTYPE svg PUBLIC "-//W3C//DTD SVG 20010904//EN"
 "http://www.w3.org/TR/2001/REC-SVG-20010904/DTD/svg10.dtd">
<svg version="1.0" xmlns="http://www.w3.org/2000/svg"
 width="1554.000000pt" height="1554.000000pt" viewBox="0 0 1554.000000 1554.000000"
 preserveAspectRatio="xMidYMid meet">

<g transform="translate(0.000000,1554.000000) scale(0.100000,-0.100000)"
fill="#000000" stroke="none">
<path d="M8636 14496 c4 -11 64 -39 70 -33 2 1 -15 12 -36 23 -21 12 -36 16
-34 10z"/>
<path d="M8660 14450 c0 -5 5 -10 11 -10 5 0 7 5 4 10 -3 6 -8 10 -11 10 -2 0
-4 -4 -4 -10z"/>
<path d="M8730 14435 c0 -8 2 -15 4 -15 2 0 6 7 10 15 3 8 1 15 -4 15 -6 0
-10 -7 -10 -15z"/>
<path d="M8694 14380 c32 -70 39 -74 17 -9 -11 29 -24 55 -30 57 -6 2 0 -19
13 -48z"/>
<path d="M8805 14390 c-3 -6 1 -7 9 -4 18 7 21 14 7 14 -6 0 -13 -4 -16 -10z"/>
<path d="M8859 14370 c13 -11 28 -20 35 -20 6 0 0 9 -14 20 -33 26 -52 25 -21
0z"/>
<path d="M9002 14295 c9 -10 21 -16 28 -13 7 2 -1 10 -16 17 -27 12 -28 11
-12 -4z"/>
<path d="M8740 14297 c0 -12 42 -98 47 -93 2 2 -7 26 -21 53 -14 26 -25 45
-26 40z"/>
<path d="M11545 14278 c-27 -10 -59 -23 -70 -28 -11 -5 -77 -30 -147 -56 -72
-27 -124 -52 -121 -57 4 -6 1 -7 -6 -2 -11 6 -57 -6 -126 -35 -11 -4 -35 -14
-54 -21 -30 -11 -32 -14 -15 -21 14 -6 12 -7 -8 -3 -25 5 -94 -15 -173 -50
-16 -7 -50 -20 -75 -28 -58 -20 -204 -77 -210 -83 -12 -12 26 -21 52 -12 16 6
40 8 53 6 13 -3 24 -2 23 1 -3 27 4 51 15 51 14 0 16 -38 3 -59 -5 -8 -3 -16
4 -21 11 -7 10 -11 -3 -24 -8 -9 -23 -16 -31 -16 -11 0 -16 -9 -16 -30 l0 -30
80 0 c47 0 80 -4 80 -10 0 -5 18 -10 40 -10 33 0 40 -3 40 -20 0 -18 7 -20 80
-20 l80 0 1 -42 c1 -24 0 -50 -1 -58 -2 -12 2 -11 18 3 15 14 21 15 25 5 5
-10 8 -9 17 4 6 9 16 15 23 13 16 -6 101 111 91 126 -10 18 -13 98 -3 104 5 4
6 -2 2 -12 -6 -16 -5 -16 10 -4 21 17 22 3 2 -23 -28 -37 -15 -41 15 -6 16 19
30 29 30 23 0 -7 -4 -13 -10 -13 -5 0 -10 -5 -10 -12 0 -6 -7 -20 -17 -30 -9
-10 -14 -21 -11 -24 3 -2 36 41 74 98 37 57 71 105 74 108 25 22 81 121 75
131 -5 7 -4 10 3 5 6 -4 36 32 73 86 34 51 67 96 73 100 24 16 -2 13 -49 -4z
m-62 -123 c-3 -9 -8 -14 -10 -11 -3 3 -2 9 2 15 9 16 15 13 8 -4z m-66 -97
c-3 -8 -6 -5 -6 6 -1 11 2 17 5 13 3 -3 4 -12 1 -19z m-24 -8 c3 -11 1 -18 -4
-14 -5 3 -9 12 -9 20 0 20 7 17 13 -6z m-333 -15 c0 -2 -6 -5 -13 -8 -8 -3
-14 1 -14 8 0 7 6 11 14 8 7 -3 13 -6 13 -8z m-110 -5 c-8 -5 -22 -9 -30 -9
-10 0 -8 3 5 9 27 12 43 12 25 0z m-66 -25 c-4 -8 -1 -15 7 -15 7 0 10 -2 7
-5 -3 -3 -13 -3 -22 1 -13 5 -14 9 -5 20 15 18 20 18 13 -1z m499 0 c-3 -9 -8
-14 -10 -11 -3 3 -2 9 2 15 9 16 15 13 8 -4z m-533 -25 c0 -5 -2 -10 -4 -10
-3 0 -8 5 -11 10 -3 6 -1 10 4 10 6 0 11 -4 11 -10z m-30 -34 c0 -3 -7 -6 -16
-6 -9 0 -12 5 -8 12 5 8 2 9 -12 4 -38 -15 -74 -19 -74 -8 0 6 6 9 14 6 8 -3
27 1 42 9 23 12 30 12 41 2 7 -8 13 -16 13 -19z m510 -21 c-7 -9 -15 -13 -18
-10 -3 2 1 11 8 20 7 9 15 13 18 10 3 -2 -1 -11 -8 -20z m-21 -40 c0 -5 -4 -3
-9 5 -5 8 -9 22 -9 30 0 16 17 -16 18 -35z m-669 25 c0 -5 -8 -10 -17 -10 -10
0 -29 -3 -43 -5 -16 -3 -12 0 10 9 43 18 50 19 50 6z m143 3 c-13 -2 -33 -2
-45 0 -13 2 -3 4 22 4 25 0 35 -2 23 -4z m-63 -123 c0 -5 -12 -10 -26 -10 -14
0 -23 4 -19 10 3 6 15 10 26 10 10 0 19 -4 19 -10z m440 -110 c-5 -9 -16 -22
-24 -30 -13 -10 -16 -10 -16 3 0 8 6 18 13 20 9 4 9 8 -2 15 -10 7 -7 10 13
10 21 0 24 -4 16 -18z"/>
<path d="M9053 14259 c-1 -10 3 -19 8 -19 6 0 8 4 5 9 -4 5 -1 11 6 13 8 3 7
6 -3 10 -10 4 -15 -1 -16 -13z"/>
<path d="M9091 14254 c-1 -18 26 -37 34 -24 3 5 0 10 -9 10 -8 0 -17 6 -19 13
-4 7 -6 8 -6 1z"/>
<path d="M9152 14214 c10 -10 20 -15 24 -12 3 4 -5 12 -18 18 -22 12 -22 12
-6 -6z"/>
<path d="M9196 14187 c3 -10 9 -15 12 -12 3 3 0 11 -7 18 -10 9 -11 8 -5 -6z"/>
<path d="M9235 14160 c3 -5 11 -10 16 -10 6 0 7 5 4 10 -3 6 -11 10 -16 10 -6
0 -7 -4 -4 -10z"/>
<path d="M8820 14135 c0 -5 5 -17 10 -25 5 -8 10 -10 10 -5 0 6 -5 17 -10 25
-5 8 -10 11 -10 5z"/>
<path d="M9320 14120 c0 -6 7 -10 15 -10 8 0 15 2 15 4 0 2 -7 6 -15 10 -8 3
-15 1 -15 -4z"/>
<path d="M9364 14101 c4 -6 22 -18 39 -27 30 -14 31 -14 12 1 -30 25 -59 39
-51 26z"/>
<path d="M8840 14084 c0 -6 7 -19 16 -30 14 -18 14 -18 3 6 -14 31 -19 36 -19
24z"/>
<path d="M9447 14049 c7 -7 15 -10 18 -7 3 3 -2 9 -12 12 -14 6 -15 5 -6 -5z"/>
<path d="M9480 14030 c0 -5 7 -10 16 -10 8 0 12 5 9 10 -3 6 -10 10 -16 10 -5
0 -9 -4 -9 -10z"/>
<path d="M7926 13943 c9 -177 36 -961 36 -1068 l0 -110 9 80 c13 111 28 161
23 75 -2 -36 -2 -59 2 -52 3 6 23 12 45 12 38 0 39 1 39 36 0 40 16 61 51 66
22 3 24 8 29 78 l5 75 38 3 c34 3 37 6 37 33 0 27 2 29 40 29 l40 0 0 40 c0
40 0 40 39 40 22 0 42 -6 45 -12 5 -10 7 -10 12 0 6 13 44 17 44 4 0 -5 12
-14 28 -21 l27 -11 -29 25 c-15 14 -26 29 -23 32 3 3 0 12 -8 19 -18 19 -31
18 -15 -1 8 -10 9 -15 2 -15 -6 0 -16 8 -22 18 -8 14 -9 12 -4 -10 4 -18 2
-28 -5 -28 -6 0 -11 16 -11 36 0 28 3 35 15 30 8 -3 15 -1 15 4 0 6 -3 10 -7
10 -5 0 -21 23 -38 50 -16 27 -33 50 -37 50 -13 0 -9 -10 18 -46 15 -19 21
-34 15 -34 -15 0 -45 48 -46 74 -1 30 -47 97 -63 91 -7 -3 -10 0 -6 6 3 6 -6
23 -21 39 -15 15 -26 31 -25 35 1 4 -9 19 -22 34 -23 28 -35 44 -66 94 -9 15
-23 25 -30 22 -7 -3 -10 0 -7 5 3 6 -15 39 -42 74 -26 36 -55 74 -63 86 -8 12
-27 38 -42 57 l-27 35 5 -89z m41 -315 c-3 -7 -5 -2 -5 12 0 14 2 19 5 13 2
-7 2 -19 0 -25z m243 -38 c0 -5 -2 -10 -4 -10 -3 0 -8 5 -11 10 -3 6 -1 10 4
10 6 0 11 -4 11 -10z m88 -119 c3 -25 0 -31 -17 -31 -11 0 -22 9 -26 21 -8 25
2 39 11 15 9 -23 23 -20 17 4 -3 11 -12 20 -19 20 -8 0 -14 7 -14 16 0 32 45
-10 48 -45z m-321 -48 c-3 -10 -5 -4 -5 12 0 17 2 24 5 18 2 -7 2 -21 0 -30z
m367 -29 c3 -8 2 -12 -4 -9 -6 3 -10 10 -10 16 0 14 7 11 14 -7z m-374 -104
l-11 -25 6 25 c2 14 5 34 6 45 2 19 2 19 6 0 2 -12 -1 -32 -7 -45z m393 3 c-7
-2 -21 -2 -30 0 -10 3 -4 5 12 5 17 0 24 -2 18 -5z m-367 -75 c4 -7 3 -8 -4
-4 -8 5 -12 -2 -13 -21 -1 -18 -3 -22 -6 -10 -5 18 2 47 11 47 3 0 8 -5 12
-12z m-29 -80 c-3 -8 -6 -5 -6 6 -1 11 2 17 5 13 3 -3 4 -12 1 -19z m20 -70
c-2 -13 -4 -5 -4 17 -1 22 1 32 4 23 2 -10 2 -28 0 -40z"/>
<path d="M9532 14004 c10 -10 20 -15 24 -12 3 4 -5 12 -18 18 -22 12 -22 12
-6 -6z"/>
<path d="M9570 13980 c0 -5 5 -10 11 -10 5 0 7 5 4 10 -3 6 -8 10 -11 10 -2 0
-4 -4 -4 -10z"/>
<path d="M9595 13960 c-3 -6 1 -7 9 -4 18 7 21 14 7 14 -6 0 -13 -4 -16 -10z"/>
<path d="M9620 13950 c-9 -6 -10 -10 -3 -10 6 0 15 5 18 10 8 12 4 12 -15 0z"/>
<path d="M9685 13910 c-3 -5 0 -7 8 -4 8 3 18 1 22 -5 3 -6 12 -11 18 -11 7 0
3 7 -7 15 -23 18 -33 19 -41 5z"/>
<path d="M9779 13869 c18 -11 35 -18 38 -15 5 5 -50 36 -64 36 -4 0 7 -9 26
-21z"/>
<path d="M10430 13855 c-90 -36 -97 -45 -16 -20 56 17 78 19 56 5 -12 -8 -11
-10 8 -10 23 0 31 25 10 33 -7 3 -3 6 9 6 12 1 31 -9 43 -21 16 -18 20 -19 20
-6 0 9 -9 20 -20 23 -11 4 -18 11 -15 16 9 14 -4 11 -95 -26z"/>
<path d="M10605 13870 c-13 -6 -15 -9 -5 -9 8 0 22 4 30 9 18 12 2 12 -25 0z"/>
<path d="M9845 13830 c3 -5 12 -10 20 -10 7 0 15 -5 17 -11 2 -7 11 -10 19 -7
9 3 4 10 -18 21 -37 19 -47 21 -38 7z"/>
<path d="M10275 13799 c-27 -11 -59 -23 -70 -28 -11 -5 -28 -12 -37 -15 -10
-3 -18 -11 -17 -18 0 -10 2 -10 6 0 2 6 15 12 28 12 13 0 27 5 30 10 4 6 16 8
28 5 15 -4 18 -3 9 3 -11 7 -8 11 11 16 14 3 32 9 41 12 11 4 15 2 13 -7 -2
-8 -2 -11 0 -7 3 4 4 10 3 14 -1 4 4 11 12 15 22 15 -5 9 -57 -12z"/>
<path d="M10430 13810 c34 -11 60 -11 35 0 -11 5 -29 8 -40 8 -16 0 -15 -2 5
-8z"/>
<path d="M9914 13788 c-4 -6 -3 -8 4 -4 6 3 18 -1 26 -10 9 -8 16 -11 16 -5 0
17 -38 33 -46 19z"/>
<path d="M10388 13793 c6 -2 18 -2 25 0 6 3 1 5 -13 5 -14 0 -19 -2 -12 -5z"/>
<path d="M10438 13783 c6 -2 18 -2 25 0 6 3 1 5 -13 5 -14 0 -19 -2 -12 -5z"/>
<path d="M9973 13670 c0 -25 2 -35 4 -22 2 12 2 32 0 45 -2 12 -4 2 -4 -23z"/>
<path d="M9075 13660 c3 -5 8 -10 11 -10 2 0 4 5 4 10 0 6 -5 10 -11 10 -5 0
-7 -4 -4 -10z"/>
<path d="M12237 13565 c-44 -41 -74 -75 -69 -75 6 0 19 10 29 23 23 30 70 60
75 50 3 -4 3 -2 1 5 -4 17 24 46 32 33 3 -5 1 -12 -5 -16 -5 -3 -10 -11 -10
-18 0 -24 23 12 26 42 2 17 3 31 1 31 -1 0 -37 -34 -80 -75z"/>
<path d="M9972 13590 c0 -19 2 -27 5 -17 2 9 2 25 0 35 -3 9 -5 1 -5 -18z"/>
<path d="M11067 13593 c-4 -3 -7 -11 -7 -17 0 -6 5 -5 12 2 6 6 9 14 7 17 -3
3 -9 2 -12 -2z"/>
<path d="M11084 13565 c-9 -14 -14 -28 -11 -31 3 -3 13 8 22 25 19 37 12 41
-11 6z"/>
<path d="M12242 13538 c-14 -14 -16 -28 -3 -28 5 0 12 8 15 18 3 9 3 -3 1 -28
-3 -32 -1 -39 5 -25 19 44 7 88 -18 63z"/>
<path d="M12282 13503 c-7 -25 -11 -47 -9 -50 2 -2 10 17 17 42 7 25 11 48 8
50 -2 2 -10 -16 -16 -42z"/>
<path d="M10122 13520 c0 -14 2 -19 5 -12 2 6 2 18 0 25 -3 6 -5 1 -5 -13z"/>
<path d="M10975 13530 c3 -5 8 -10 11 -10 2 0 4 5 4 10 0 6 -5 10 -11 10 -5 0
-7 -4 -4 -10z"/>
<path d="M11044 13514 c-1 -13 2 -21 7 -18 11 6 12 31 2 37 -5 3 -9 -6 -9 -19z"/>
<path d="M12155 13459 c-4 -6 -4 -13 -1 -16 3 -4 6 -1 6 5 0 6 8 13 18 15 15
4 15 5 0 6 -9 0 -20 -4 -23 -10z"/>
<path d="M9971 13444 c0 -11 3 -14 6 -6 3 7 2 16 -1 19 -3 4 -6 -2 -5 -13z"/>
<path d="M10959 13451 c8 -5 10 -14 6 -22 -6 -11 -5 -11 5 -2 14 12 6 33 -13
33 -8 0 -7 -3 2 -9z"/>
<path d="M10997 13443 c3 -7 9 -10 14 -7 14 8 11 21 -5 21 -8 0 -12 -6 -9 -14z"/>
<path d="M12069 13409 c-30 -28 -32 -31 -7 -11 20 16 42 32 50 34 7 3 10 8 7
12 -3 3 -26 -12 -50 -35z"/>
<path d="M12258 13403 c5 -21 7 -23 10 -9 2 10 0 22 -6 28 -6 6 -7 0 -4 -19z"/>
<path d="M10905 13370 c3 -5 8 -10 11 -10 2 0 4 5 4 10 0 6 -5 10 -11 10 -5 0
-7 -4 -4 -10z"/>
<path d="M10940 13370 c0 -5 7 -7 15 -4 8 4 15 8 15 10 0 2 -7 4 -15 4 -8 0
-15 -4 -15 -10z"/>
<path d="M10887 13339 c6 -23 9 -24 16 -5 3 8 0 17 -7 19 -10 4 -12 -1 -9 -14z"/>
<path d="M11990 13330 c12 -8 13 -11 1 -19 -8 -5 -9 -11 -3 -15 11 -7 25 21
16 35 -3 5 -11 9 -17 9 -7 0 -6 -4 3 -10z"/>
<path d="M11900 13259 c0 -5 5 -7 10 -4 6 3 10 8 10 11 0 2 -4 4 -10 4 -5 0
-10 -5 -10 -11z"/>
<path d="M10863 13240 c-6 -21 -23 -28 -23 -8 0 6 -2 9 -5 6 -3 -3 -3 -13 1
-22 5 -13 9 -14 20 -5 8 6 14 17 14 24 0 8 6 16 13 18 9 4 9 6 -1 6 -8 1 -16
-8 -19 -19z"/>
<path d="M11876 13241 c-3 -5 1 -11 9 -14 9 -4 12 -1 8 9 -6 16 -10 17 -17 5z"/>
<path d="M12200 13226 c0 -2 7 -7 16 -10 8 -3 12 -2 9 4 -6 10 -25 14 -25 6z"/>
<path d="M8530 13193 c0 -4 5 -15 10 -23 8 -13 10 -13 10 2 0 9 -4 20 -10 23
-5 3 -10 3 -10 -2z"/>
<path d="M8511 13154 c0 -11 3 -14 6 -6 3 7 2 16 -1 19 -3 4 -6 -2 -5 -13z"/>
<path d="M11782 13155 c-7 -8 -9 -15 -4 -15 5 0 15 7 22 15 16 19 -1 19 -18 0z"/>
<path d="M12191 13144 c0 -11 3 -14 6 -6 3 7 2 16 -1 19 -3 4 -6 -2 -5 -13z"/>
<path d="M8574 13130 c0 -13 4 -16 10 -10 7 7 7 13 0 20 -6 6 -10 3 -10 -10z"/>
<path d="M8538 13133 c7 -3 16 -2 19 1 4 3 -2 6 -13 5 -11 0 -14 -3 -6 -6z"/>
<path d="M8600 13114 c0 -7 9 -22 21 -35 16 -19 18 -20 10 -4 -17 34 -31 51
-31 39z"/>
<path d="M12182 13060 c0 -19 2 -27 5 -17 2 9 2 25 0 35 -3 9 -5 1 -5 -18z"/>
<path d="M12152 12940 c0 -14 2 -19 5 -12 2 6 2 18 0 25 -3 6 -5 1 -5 -13z"/>
<path d="M8726 12935 c4 -8 11 -15 16 -15 6 0 5 6 -2 15 -7 8 -14 15 -16 15
-2 0 -1 -7 2 -15z"/>
<path d="M12130 12895 c0 -5 5 -17 10 -25 5 -8 10 -10 10 -5 0 6 -5 17 -10 25
-5 8 -10 11 -10 5z"/>
<path d="M12111 12864 c0 -11 3 -14 6 -6 3 7 2 16 -1 19 -3 4 -6 -2 -5 -13z"/>
<path d="M12132 12830 c0 -14 2 -19 5 -12 2 6 2 18 0 25 -3 6 -5 1 -5 -13z"/>
<path d="M11420 12830 c-9 -6 -10 -10 -3 -10 6 0 15 5 18 10 8 12 4 12 -15 0z"/>
<path d="M8840 12794 c0 -13 18 -39 24 -34 2 3 -2 14 -10 24 -8 11 -14 16 -14
10z"/>
<path d="M12106 12775 c-3 -9 -6 -26 -5 -38 1 -14 4 -9 9 13 9 37 7 52 -4 25z"/>
<path d="M7973 12680 c0 -36 2 -50 4 -32 2 17 2 47 0 65 -2 17 -4 3 -4 -33z"/>
<path d="M7977 12586 c-4 -15 -6 -31 -2 -34 10 -10 16 6 13 35 l-3 28 -8 -29z"/>
<path d="M12071 12574 c0 -11 3 -14 6 -6 3 7 2 16 -1 19 -3 4 -6 -2 -5 -13z"/>
<path d="M12054 12535 c-3 -8 -4 -20 -2 -27 3 -7 7 -1 10 15 6 29 1 36 -8 12z"/>
<path d="M7970 12486 c0 -3 9 -10 20 -16 11 -6 20 -8 20 -6 0 3 -9 10 -20 16
-11 6 -20 8 -20 6z"/>
<path d="M8018 12483 c7 -3 16 -2 19 1 4 3 -2 6 -13 5 -11 0 -14 -3 -6 -6z"/>
<path d="M8050 12470 c0 -5 5 -10 10 -10 6 0 10 5 10 10 0 6 -4 10 -10 10 -5
0 -10 -4 -10 -10z"/>
<path d="M12016 12456 c-3 -13 -2 -34 2 -47 7 -17 9 -12 9 24 0 53 -2 57 -11
23z"/>
<path d="M8030 12450 c8 -5 22 -9 30 -9 10 0 8 3 -5 9 -27 12 -43 12 -25 0z"/>
<path d="M12042 12440 c0 -14 2 -19 5 -12 2 6 2 18 0 25 -3 6 -5 1 -5 -13z"/>
<path d="M8115 12410 c3 -5 11 -10 16 -10 6 0 7 5 4 10 -3 6 -11 10 -16 10 -6
0 -7 -4 -4 -10z"/>
<path d="M8218 12363 c7 -3 16 -2 19 1 4 3 -2 6 -13 5 -11 0 -14 -3 -6 -6z"/>
<path d="M8290 12330 c8 -5 20 -10 25 -10 6 0 3 5 -5 10 -8 5 -19 10 -25 10
-5 0 -3 -5 5 -10z"/>
<path d="M12012 12320 c0 -14 2 -19 5 -12 2 6 2 18 0 25 -3 6 -5 1 -5 -13z"/>
<path d="M7867 12287 c-20 -18 -37 -37 -37 -42 0 -6 3 -6 8 0 4 6 24 25 45 43
21 17 34 32 29 32 -5 0 -25 -15 -45 -33z"/>
<path d="M7975 12290 c3 -5 16 -10 28 -9 21 0 21 1 2 9 -28 12 -37 12 -30 0z"/>
<path d="M8037 12269 c7 -7 15 -10 18 -7 3 3 -2 9 -12 12 -14 6 -15 5 -6 -5z"/>
<path d="M8090 12252 c8 -5 26 -13 40 -16 17 -5 20 -4 10 2 -8 5 -26 13 -40
16 -17 5 -20 4 -10 -2z"/>
<path d="M7790 12215 c-7 -8 -9 -15 -6 -15 4 0 14 7 22 15 9 8 11 15 6 15 -5
0 -15 -7 -22 -15z"/>
<path d="M7698 12127 c-30 -25 -35 -35 -27 -47 8 -12 10 -12 7 -1 -2 8 12 29
31 47 46 43 38 43 -11 1z"/>
<path d="M11880 12120 c-18 -12 -2 -12 25 0 13 6 15 9 5 9 -8 0 -22 -4 -30 -9z"/>
<path d="M11668 12063 c7 -3 16 -2 19 1 4 3 -2 6 -13 5 -11 0 -14 -3 -6 -6z"/>
<path d="M7627 12049 c7 -7 15 -10 18 -7 3 3 -2 9 -12 12 -14 6 -15 5 -6 -5z"/>
<path d="M7584 12029 c-19 -22 -19 -22 4 -8 12 8 22 17 22 21 0 12 -6 9 -26
-13z"/>
<path d="M11548 12033 c7 -3 16 -2 19 1 4 3 -2 6 -13 5 -11 0 -14 -3 -6 -6z"/>
<path d="M7540 11985 c-19 -23 -8 -25 14 -4 11 11 15 19 9 19 -6 0 -16 -7 -23
-15z"/>
<path d="M11975 11969 l-30 -7 35 -2 c33 -2 33 -3 10 -10 -23 -7 -23 -8 -3 -9
24 -1 40 16 27 28 -5 4 -22 4 -39 0z"/>
<path d="M7486 11939 c-15 -12 -25 -23 -23 -26 3 -2 17 7 32 21 34 31 28 34
-9 5z"/>
<path d="M11773 11933 c9 -2 23 -2 30 0 6 3 -1 5 -18 5 -16 0 -22 -2 -12 -5z"/>
<path d="M11908 11933 c7 -3 16 -2 19 1 4 3 -2 6 -13 5 -11 0 -14 -3 -6 -6z"/>
<path d="M7500 11915 c-7 -9 -8 -15 -2 -15 5 0 12 7 16 15 3 8 4 15 2 15 -2 0
-9 -7 -16 -15z"/>
<path d="M11978 11923 c7 -3 16 -2 19 1 4 3 -2 6 -13 5 -11 0 -14 -3 -6 -6z"/>
<path d="M12015 11910 c3 -5 8 -10 11 -10 2 0 4 5 4 10 0 6 -5 10 -11 10 -5 0
-7 -4 -4 -10z"/>
<path d="M12051 11907 c-1 -11 35 -63 66 -97 33 -35 29 -14 -4 24 -16 17 -36
43 -45 56 -9 14 -17 21 -17 17z"/>
<path d="M11498 11883 c12 -2 30 -2 40 0 9 3 -1 5 -23 4 -22 0 -30 -2 -17 -4z"/>
<path d="M7377 11836 c-35 -32 -44 -45 -33 -49 11 -4 13 -1 9 11 -3 9 -3 14 2
10 4 -4 22 8 38 28 25 29 35 34 56 29 20 -4 22 -3 11 5 -24 16 -33 12 -83 -34z"/>
<path d="M12084 11790 c-1 -25 1 -27 14 -14 13 13 13 17 1 29 -12 12 -14 10
-15 -15z"/>
<path d="M7300 11765 c-8 -9 -8 -15 -2 -15 12 0 26 19 19 26 -2 2 -10 -2 -17
-11z"/>
<path d="M12164 11725 c0 -19 3 -32 8 -29 4 3 8 -3 8 -13 1 -20 23 -53 36 -53
4 0 3 5 -4 12 -7 7 -12 20 -12 29 0 9 -7 22 -15 29 -8 7 -15 17 -15 22 0 6 7
5 15 -2 21 -18 19 3 -3 23 -16 15 -17 14 -18 -18z"/>
<path d="M7330 11739 c0 -5 5 -7 10 -4 6 3 10 8 10 11 0 2 -4 4 -10 4 -5 0
-10 -5 -10 -11z"/>
<path d="M7216 11689 c-22 -21 -35 -39 -28 -39 7 0 12 5 12 10 0 6 4 9 8 8 5
-2 21 12 36 30 38 44 19 39 -28 -9z"/>
<path d="M12210 11688 c0 -9 5 -20 10 -23 13 -8 13 5 0 25 -8 13 -10 13 -10
-2z"/>
<path d="M12234 11643 c-3 -12 -15 -25 -25 -28 -11 -4 -17 -11 -14 -16 4 -5 2
-9 -4 -9 -12 0 -41 -28 -41 -41 0 -5 20 -9 44 -9 40 0 45 3 50 28 3 15 4 41 1
57 l-5 30 16 -28 c14 -26 14 -32 -1 -63 -14 -30 -20 -34 -55 -34 l-40 0 0 -75
c0 -68 2 -75 20 -75 19 0 20 -7 20 -120 0 -113 -1 -120 -20 -120 -13 0 -20 7
-20 20 0 15 -7 20 -26 20 -29 0 -67 -31 -46 -38 6 -2 12 -19 12 -38 0 -24 5
-34 15 -34 8 0 15 -4 15 -10 0 -5 -10 -10 -22 -10 -19 -1 -17 -3 11 -15 19 -9
39 -12 45 -7 6 5 26 9 44 10 26 2 32 -1 32 -18 0 -12 -4 -19 -9 -15 -5 3 -12
1 -15 -3 -7 -11 -33 -8 -71 7 -43 18 -94 26 -75 12 8 -6 21 -11 28 -11 8 0 28
-6 45 -14 76 -34 317 -107 328 -101 7 5 10 4 6 -2 -5 -8 206 -85 410 -149 l43
-13 -27 40 c-14 21 -30 39 -34 39 -5 0 -9 5 -9 11 0 6 -14 28 -30 50 -21 26
-36 36 -48 33 -13 -5 -14 -4 -3 4 11 8 -4 34 -74 128 -49 66 -133 180 -188
254 -55 74 -132 178 -171 230 -39 52 -79 106 -88 120 l-17 25 -7 -22z m56 -77
c0 -15 -18 -31 -26 -23 -7 7 7 37 17 37 5 0 9 -6 9 -14z m25 -16 c3 -5 1 -10
-4 -10 -6 0 -11 5 -11 10 0 6 2 10 4 10 3 0 8 -4 11 -10z m47 -75 l11 -20 -23
20 c-23 20 -23 20 -16 0 4 -11 4 -16 -1 -12 -4 5 -8 23 -9 40 -2 30 -1 30 13
12 8 -11 19 -29 25 -40z m-22 -75 c0 -5 -2 -10 -4 -10 -3 0 -8 5 -11 10 -3 6
-1 10 4 10 6 0 11 -4 11 -10z m83 -4 c4 -10 1 -13 -9 -9 -15 6 -19 23 -5 23 5
0 11 -7 14 -14z m27 -59 c0 -18 -2 -19 -10 -7 -13 20 -13 43 0 35 6 -3 10 -16
10 -28z m-30 -22 c0 -8 -2 -15 -4 -15 -2 0 -6 7 -10 15 -3 8 -1 15 4 15 6 0
10 -7 10 -15z m110 -70 c0 -8 5 -15 12 -15 6 0 8 -3 5 -6 -8 -8 -37 14 -37 27
0 5 5 9 10 9 6 0 10 -7 10 -15z m65 -102 c18 -10 17 -11 -6 -10 -17 2 -26 8
-27 22 0 11 2 15 6 9 4 -6 16 -16 27 -21z m-5 -33 c0 -5 -4 -10 -10 -10 -5 0
-10 5 -10 10 0 6 5 10 10 10 6 0 10 -4 10 -10z m40 0 c0 -5 -4 -10 -10 -10 -5
0 -10 5 -10 10 0 6 5 10 10 10 6 0 10 -4 10 -10z m-443 -46 c-3 -3 -12 -4 -19
-1 -8 3 -5 6 6 6 11 1 17 -2 13 -5z m498 -44 c3 -5 1 -10 -4 -10 -6 0 -11 5
-11 10 0 6 2 10 4 10 3 0 8 -4 11 -10z m-380 -50 c-4 -6 5 -8 22 -4 15 3 39 1
53 -4 19 -7 12 -8 -30 -6 -73 3 -70 3 -70 14 0 6 7 10 16 10 8 0 12 -4 9 -10z
m89 -39 c4 -5 -3 -7 -14 -4 -23 6 -26 13 -6 13 8 0 17 -4 20 -9z m371 -1 c3
-5 1 -10 -4 -10 -6 0 -11 5 -11 10 0 6 2 10 4 10 3 0 8 -4 11 -10z m-176 -61
c17 -6 31 -15 31 -19 0 -5 -15 -1 -32 7 -53 26 -53 31 1 12z"/>
<path d="M12170 11630 c0 -5 5 -10 11 -10 5 0 7 5 4 10 -3 6 -8 10 -11 10 -2
0 -4 -4 -4 -10z"/>
<path d="M7110 11590 c0 -5 7 -10 15 -10 8 0 15 5 15 10 0 6 -7 10 -15 10 -8
0 -15 -4 -15 -10z"/>
<path d="M7085 11569 c-4 -6 -5 -12 -2 -15 2 -3 7 2 10 11 7 17 1 20 -8 4z"/>
<path d="M7110 11550 c0 -5 5 -10 11 -10 5 0 7 5 4 10 -3 6 -8 10 -11 10 -2 0
-4 -4 -4 -10z"/>
<path d="M7020 11505 c0 -8 2 -15 4 -15 2 0 6 7 10 15 3 8 1 15 -4 15 -6 0
-10 -7 -10 -15z"/>
<path d="M6948 11444 c-62 -58 -62 -68 -1 -14 26 22 52 39 59 36 8 -3 11 1 7
10 -8 21 -13 18 -65 -32z"/>
<path d="M6825 11333 c-33 -31 -52 -53 -42 -50 10 4 23 7 28 7 6 0 8 4 4 9 -8
14 53 56 78 54 17 -1 18 0 4 4 -11 3 -16 11 -13 19 7 19 8 20 -59 -43z"/>
<path d="M6945 11370 c-3 -5 -1 -10 4 -10 6 0 11 5 11 10 0 6 -2 10 -4 10 -3
0 -8 -4 -11 -10z"/>
<path d="M7178 11363 c7 -3 16 -2 19 1 4 3 -2 6 -13 5 -11 0 -14 -3 -6 -6z"/>
<path d="M7288 11353 c7 -3 16 -2 19 1 4 3 -2 6 -13 5 -11 0 -14 -3 -6 -6z"/>
<path d="M6930 11341 c0 -5 9 -7 20 -4 11 3 20 7 20 9 0 2 -9 4 -20 4 -11 0
-20 -4 -20 -9z"/>
<path d="M7125 11340 l-40 -7 35 -1 c19 0 53 3 75 7 l40 9 -35 -1 c-19 0 -53
-3 -75 -7z"/>
<path d="M6865 11330 c-4 -6 3 -10 14 -10 25 0 27 6 6 13 -8 4 -17 2 -20 -3z"/>
<path d="M7033 11323 c9 -2 23 -2 30 0 6 3 -1 5 -18 5 -16 0 -22 -2 -12 -5z"/>
<path d="M6948 11313 c6 -2 18 -2 25 0 6 3 1 5 -13 5 -14 0 -19 -2 -12 -5z"/>
<path d="M6848 11303 c7 -3 16 -2 19 1 4 3 -2 6 -13 5 -11 0 -14 -3 -6 -6z"/>
<path d="M6898 11303 c7 -3 16 -2 19 1 4 3 -2 6 -13 5 -11 0 -14 -3 -6 -6z"/>
<path d="M11628 11173 c7 -3 16 -2 19 1 4 3 -2 6 -13 5 -11 0 -14 -3 -6 -6z"/>
<path d="M11835 11110 c-3 -6 1 -7 9 -4 18 7 21 14 7 14 -6 0 -13 -4 -16 -10z"/>
<path d="M11980 11100 c0 -5 5 -10 10 -10 6 0 10 5 10 10 0 6 -4 10 -10 10 -5
0 -10 -4 -10 -10z"/>
<path d="M11860 11096 c0 -2 9 -6 20 -9 11 -3 18 -1 14 4 -5 9 -34 13 -34 5z"/>
<path d="M11991 11046 c2 -2 18 -6 34 -10 22 -5 26 -4 15 4 -14 9 -59 15 -49
6z"/>
<path d="M8288 10913 c7 -3 16 -2 19 1 4 3 -2 6 -13 5 -11 0 -14 -3 -6 -6z"/>
<path d="M8168 10873 c7 -3 16 -2 19 1 4 3 -2 6 -13 5 -11 0 -14 -3 -6 -6z"/>
<path d="M8118 10853 c7 -3 16 -2 19 1 4 3 -2 6 -13 5 -11 0 -14 -3 -6 -6z"/>
<path d="M8068 10843 c-10 -2 -18 -9 -18 -14 0 -6 10 -5 23 2 37 20 36 23 -5
12z"/>
<path d="M7975 10813 c-27 -8 -54 -19 -60 -24 -5 -6 10 -3 34 6 24 8 52 15 62
15 10 0 21 5 24 10 8 13 1 12 -60 -7z"/>
<path d="M7998 10783 c7 -3 16 -2 19 1 4 3 -2 6 -13 5 -11 0 -14 -3 -6 -6z"/>
<path d="M7878 10773 c7 -3 16 -2 19 1 4 3 -2 6 -13 5 -11 0 -14 -3 -6 -6z"/>
<path d="M7930 10770 c-18 -12 -2 -12 25 0 13 6 15 9 5 9 -8 0 -22 -4 -30 -9z"/>
<path d="M7678 10713 c-92 -32 -164 -61 -161 -66 4 -6 1 -7 -7 -2 -16 10 -393
-117 -377 -127 7 -5 -3 -5 -22 -1 -27 5 -32 3 -26 -7 5 -8 4 -11 -2 -7 -5 3
-36 -2 -69 -12 l-59 -19 75 -22 c128 -38 259 -76 430 -125 91 -26 174 -51 185
-55 70 -26 169 -51 181 -46 8 3 13 2 10 -3 -3 -4 15 -12 39 -18 24 -6 42 -6
39 -2 -3 5 -14 9 -24 9 -10 0 -22 4 -25 10 -4 6 7 8 27 5 26 -4 29 -3 13 4
-11 5 -40 10 -65 12 -45 1 -45 1 15 10 33 5 66 11 73 14 7 3 10 0 7 -5 -4 -6
6 -10 22 -9 25 0 26 1 8 9 -18 8 -17 9 8 9 26 1 27 3 27 56 l0 55 -40 0 c-33
0 -40 3 -40 20 0 11 -4 20 -10 20 -15 0 -12 78 2 82 21 7 -17 38 -46 38 -19 0
-26 5 -26 20 0 13 -7 20 -20 20 -13 0 -20 7 -20 20 0 13 7 20 20 20 11 0 20 5
20 10 0 6 -9 10 -20 10 -11 0 -20 4 -20 10 0 5 -12 12 -27 16 -16 3 -37 8 -48
11 -17 5 -18 4 -7 -10 8 -9 23 -14 38 -11 19 3 24 0 24 -16 0 -15 -7 -20 -26
-20 -14 0 -23 4 -19 10 3 6 1 10 -4 10 -6 0 -11 -4 -11 -8 0 -4 -9 -8 -20 -9
-11 -1 -20 2 -20 8 0 5 -7 9 -15 9 -8 0 -15 5 -15 10 0 6 12 10 26 10 14 0 23
-4 19 -10 -3 -5 1 -10 9 -10 22 0 20 7 -7 25 -21 13 -29 13 -73 0 -79 -24 -86
-16 -9 10 39 13 78 22 88 19 54 -13 61 -13 32 1 l-30 14 33 1 c19 0 35 6 38
15 4 8 14 15 23 15 9 1 27 7 41 15 43 24 11 16 -162 -42z m-38 -85 c0 -4 -9
-8 -21 -8 -11 0 -18 4 -15 8 3 5 12 9 21 9 8 0 15 -4 15 -9z m-126 -7 c3 -4
-6 -6 -19 -3 -14 2 -25 6 -25 8 0 8 39 4 44 -5z m-64 -11 c-8 -5 -19 -10 -25
-10 -5 0 -3 5 5 10 8 5 20 10 25 10 6 0 3 -5 -5 -10z m-13 -206 c-3 -3 -12 -4
-19 -1 -8 3 -5 6 6 6 11 1 17 -2 13 -5z m182 -78 c-2 -2 -22 -6 -44 -9 -28 -5
-34 -4 -20 3 19 8 73 14 64 6z m81 -12 c0 -2 -7 -4 -15 -4 -8 0 -15 4 -15 10
0 5 7 7 15 4 8 -4 15 -8 15 -10z m-30 -18 c0 -11 -19 -15 -25 -6 -3 5 1 10 9
10 9 0 16 -2 16 -4z m87 -2 c-3 -3 -12 -4 -19 -1 -8 3 -5 6 6 6 11 1 17 -2 13
-5z m-50 -20 c-3 -3 -12 -4 -19 -1 -8 3 -5 6 6 6 11 1 17 -2 13 -5z m57 -13
c3 -4 -6 -6 -19 -3 -14 2 -25 6 -25 8 0 8 39 4 44 -5z"/>
<path d="M7905 10740 c3 -5 8 -10 11 -10 2 0 4 5 4 10 0 6 -5 10 -11 10 -5 0
-7 -4 -4 -10z"/>
<path d="M7820 10731 c0 -17 18 -21 24 -6 3 9 0 15 -9 15 -8 0 -15 -4 -15 -9z"/>
<path d="M7870 10710 c0 -5 5 -10 10 -10 6 0 10 5 10 10 0 6 -4 10 -10 10 -5
0 -10 -4 -10 -10z"/>
<path d="M7788 10693 c7 -3 16 -2 19 1 4 3 -2 6 -13 5 -11 0 -14 -3 -6 -6z"/>
<path d="M11960 10530 c0 -5 5 -10 11 -10 5 0 7 5 4 10 -3 6 -8 10 -11 10 -2
0 -4 -4 -4 -10z"/>
<path d="M12340 10355 c14 -8 30 -14 35 -14 6 0 -1 6 -15 14 -14 8 -29 14 -35
14 -5 0 1 -6 15 -14z"/>
<path d="M12407 10329 c7 -7 15 -10 18 -7 3 3 -2 9 -12 12 -14 6 -15 5 -6 -5z"/>
<path d="M8859 10283 l-24 -28 28 24 c15 14 27 26 27 28 0 8 -8 1 -31 -24z"/>
<path d="M12508 10280 c18 -11 38 -20 45 -20 14 1 -52 39 -68 40 -5 0 5 -9 23
-20z"/>
<path d="M12440 10286 c0 -2 9 -6 20 -9 11 -3 18 -1 14 4 -5 9 -34 13 -34 5z"/>
<path d="M8058 10253 c7 -3 16 -2 19 1 4 3 -2 6 -13 5 -11 0 -14 -3 -6 -6z"/>
<path d="M12565 10249 c-11 -16 -1 -19 13 -3 7 8 8 14 3 14 -5 0 -13 -5 -16
-11z"/>
<path d="M12600 10240 c0 -5 5 -10 11 -10 5 0 7 5 4 10 -3 6 -8 10 -11 10 -2
0 -4 -4 -4 -10z"/>
<path d="M10776 10227 c3 -10 9 -15 12 -12 3 3 0 11 -7 18 -10 9 -11 8 -5 -6z"/>
<path d="M7980 10219 c0 -4 -9 -9 -20 -11 -12 -2 -22 -7 -23 -12 -2 -9 206
-76 239 -76 11 0 25 -5 31 -11 6 -6 17 -9 23 -7 16 5 -23 22 -100 42 -122 32
-147 41 -143 52 2 6 15 9 28 6 14 -2 25 0 25 6 0 5 -13 12 -30 14 -16 3 -30 1
-30 -3z"/>
<path d="M8607 10223 c-4 -3 -7 -11 -7 -17 0 -6 5 -5 12 2 6 6 9 14 7 17 -3 3
-9 2 -12 -2z"/>
<path d="M12637 10219 c7 -7 15 -10 18 -7 3 3 -2 9 -12 12 -14 6 -15 5 -6 -5z"/>
<path d="M12515 10210 c-3 -5 -1 -10 4 -10 6 0 11 5 11 10 0 6 -2 10 -4 10 -3
0 -8 -4 -11 -10z"/>
<path d="M12595 10210 c3 -5 10 -10 16 -10 5 0 9 5 9 10 0 6 -7 10 -16 10 -8
0 -12 -4 -9 -10z"/>
<path d="M10800 10201 c0 -6 4 -13 10 -16 6 -3 7 1 4 9 -7 18 -14 21 -14 7z"/>
<path d="M12680 10200 c0 -5 5 -10 10 -10 6 0 10 5 10 10 0 6 -4 10 -10 10 -5
0 -10 -4 -10 -10z"/>
<path d="M10980 10191 c0 -6 4 -13 10 -16 6 -3 7 1 4 9 -7 18 -14 21 -14 7z"/>
<path d="M12605 10190 c-27 -7 -28 -8 -5 -8 14 0 34 3 45 8 25 11 2 11 -40 0z"/>
<path d="M1760 9990 l0 -190 210 0 210 0 0 -665 0 -665 210 0 210 0 0 665 0
665 210 0 210 0 0 190 0 190 -630 0 -630 0 0 -190z"/>
<path d="M3390 9325 l0 -855 210 0 210 0 0 340 0 340 218 -2 217 -3 3 -337 2
-338 210 0 210 0 0 855 0 855 -210 0 -210 0 0 -330 0 -330 -220 2 -221 3 -2
325 -2 325 -207 3 -208 2 0 -855z"/>
<path d="M5140 9325 l0 -855 580 0 580 0 0 185 0 185 -370 0 -370 0 0 150 0
150 315 0 315 0 0 190 0 190 -315 0 -315 0 0 140 0 140 370 0 370 0 0 190 0
190 -580 0 -580 0 0 -855z"/>
<path d="M8075 10170 c3 -5 18 -10 32 -10 32 0 28 5 -10 14 -19 4 -26 3 -22
-4z"/>
<path d="M8148 10173 c7 -3 16 -2 19 1 4 3 -2 6 -13 5 -11 0 -14 -3 -6 -6z"/>
<path d="M12528 10173 c7 -3 16 -2 19 1 4 3 -2 6 -13 5 -11 0 -14 -3 -6 -6z"/>
<path d="M12305 10160 c-13 -6 -15 -9 -5 -9 8 0 22 4 30 9 18 12 2 12 -25 0z"/>
<path d="M8745 10134 c-9 -15 -12 -23 -6 -20 11 7 35 46 28 46 -3 0 -12 -12
-22 -26z"/>
<path d="M10830 10155 c0 -5 10 -21 21 -35 13 -17 17 -18 10 -5 -17 33 -31 51
-31 40z"/>
<path d="M12168 10153 c7 -3 16 -2 19 1 4 3 -2 6 -13 5 -11 0 -14 -3 -6 -6z"/>
<path d="M12438 10153 c6 -2 18 -2 25 0 6 3 1 5 -13 5 -14 0 -19 -2 -12 -5z"/>
<path d="M8530 10141 c0 -5 -11 -19 -25 -32 -13 -13 -25 -28 -25 -32 0 -8 22
12 54 51 11 12 14 22 8 22 -7 0 -12 -4 -12 -9z"/>
<path d="M12238 10143 c7 -3 16 -2 19 1 4 3 -2 6 -13 5 -11 0 -14 -3 -6 -6z"/>
<path d="M12168 10123 c7 -3 16 -2 19 1 4 3 -2 6 -13 5 -11 0 -14 -3 -6 -6z"/>
<path d="M12268 10123 c6 -2 18 -2 25 0 6 3 1 5 -13 5 -14 0 -19 -2 -12 -5z"/>
<path d="M12218 10113 c7 -3 16 -2 19 1 4 3 -2 6 -13 5 -11 0 -14 -3 -6 -6z"/>
<path d="M12125 10100 c-13 -6 -5 -7 25 -3 25 3 47 7 49 9 9 8 -55 2 -74 -6z"/>
<path d="M10142 10080 c0 -14 2 -19 5 -12 2 6 2 18 0 25 -3 6 -5 1 -5 -13z"/>
<path d="M12030 10084 c-32 -13 -33 -14 -5 -8 17 3 40 6 52 6 13 0 20 4 17 9
-7 12 -21 10 -64 -7z"/>
<path d="M8320 10075 c52 -17 68 -19 55 -6 -6 5 -30 12 -55 15 l-45 6 45 -15z"/>
<path d="M11818 10083 c7 -3 16 -2 19 1 4 3 -2 6 -13 5 -11 0 -14 -3 -6 -6z"/>
<path d="M11915 10080 c-3 -6 1 -7 9 -4 18 7 21 14 7 14 -6 0 -13 -4 -16 -10z"/>
<path d="M8455 10060 c-4 -6 -20 -9 -38 -6 l-32 5 33 -11 c24 -8 36 -8 44 0 7
7 9 14 6 17 -3 4 -9 1 -13 -5z"/>
<path d="M11828 10063 c7 -3 16 -2 19 1 4 3 -2 6 -13 5 -11 0 -14 -3 -6 -6z"/>
<path d="M11938 10063 c6 -2 18 -2 25 0 6 3 1 5 -13 5 -14 0 -19 -2 -12 -5z"/>
<path d="M11878 10053 c6 -2 18 -2 25 0 6 3 1 5 -13 5 -14 0 -19 -2 -12 -5z"/>
<path d="M8650 10025 c-7 -9 -8 -15 -2 -15 5 0 12 7 16 15 3 8 4 15 2 15 -2 0
-9 -7 -16 -15z"/>
<path d="M11803 10033 c9 -2 23 -2 30 0 6 3 -1 5 -18 5 -16 0 -22 -2 -12 -5z"/>
<path d="M10905 10019 c-4 -6 -5 -12 -2 -15 2 -3 7 2 10 11 7 17 1 20 -8 4z"/>
<path d="M11733 10023 c9 -2 23 -2 30 0 6 3 -1 5 -18 5 -16 0 -22 -2 -12 -5z"/>
<path d="M11635 10010 c-16 -7 -17 -9 -3 -9 9 -1 20 4 23 9 7 11 7 11 -20 0z"/>
<path d="M11688 10013 c7 -3 16 -2 19 1 4 3 -2 6 -13 5 -11 0 -14 -3 -6 -6z"/>
<path d="M10936 9990 c3 -13 13 -30 20 -38 20 -19 17 -7 -7 30 -17 27 -19 28
-13 8z"/>
<path d="M11358 10003 c7 -3 16 -2 19 1 4 3 -2 6 -13 5 -11 0 -14 -3 -6 -6z"/>
<path d="M11551 9999 c-65 -13 -74 -20 -16 -13 28 3 54 10 60 15 5 5 7 9 5 8
-3 -1 -25 -5 -49 -10z"/>
<path d="M8611 9974 c-17 -22 -20 -54 -4 -54 3 0 3 7 0 15 -4 8 -2 17 3 20 11
7 33 45 26 45 -2 0 -14 -12 -25 -26z"/>
<path d="M11288 9993 c7 -3 16 -2 19 1 4 3 -2 6 -13 5 -11 0 -14 -3 -6 -6z"/>
<path d="M11140 9982 c0 -5 7 -15 15 -22 8 -7 15 -8 15 -2 0 5 -7 15 -15 22
-8 7 -15 8 -15 2z"/>
<path d="M11366 9981 c-4 -5 3 -7 14 -4 23 6 26 13 6 13 -8 0 -17 -4 -20 -9z"/>
<path d="M11440 9969 c0 -5 5 -7 10 -4 6 3 10 8 10 11 0 2 -4 4 -10 4 -5 0
-10 -5 -10 -11z"/>
<path d="M11353 9961 c-60 -10 -66 -22 -7 -15 47 6 100 25 64 22 -8 0 -34 -4
-57 -7z"/>
<path d="M11175 9930 c3 -5 16 -10 28 -9 21 0 21 1 2 9 -28 12 -37 12 -30 0z"/>
<path d="M11248 9933 c7 -3 16 -2 19 1 4 3 -2 6 -13 5 -11 0 -14 -3 -6 -6z"/>
<path d="M8580 9903 c0 -5 9 -18 19 -27 11 -10 17 -26 15 -39 -4 -21 -4 -21 5
-2 6 15 3 26 -13 45 -11 14 -22 27 -23 29 -2 2 -3 0 -3 -6z"/>
<path d="M8610 9899 c0 -5 5 -7 10 -4 6 3 10 8 10 11 0 2 -4 4 -10 4 -5 0 -10
-5 -10 -11z"/>
<path d="M11006 9863 c-6 -14 -5 -15 5 -6 7 7 10 15 7 18 -3 3 -9 -2 -12 -12z"/>
<path d="M10975 9830 c3 -5 8 -10 11 -10 2 0 4 5 4 10 0 6 -5 10 -11 10 -5 0
-7 -4 -4 -10z"/>
<path d="M11024 9830 c2 -16 20 -14 24 2 3 10 2 10 -6 -1 -7 -9 -11 -10 -15
-2 -4 7 -5 8 -3 1z"/>
<path d="M8637 9775 c9 -19 18 -33 21 -31 4 5 -26 66 -33 66 -3 0 3 -16 12
-35z"/>
<path d="M11004 9765 c-3 -14 -10 -25 -15 -25 -5 0 -9 -5 -9 -11 0 -8 5 -8 15
1 8 7 15 18 15 25 0 8 5 15 12 17 9 3 9 6 0 12 -7 4 -14 -3 -18 -19z"/>
<path d="M10977 9773 c-4 -3 -7 -11 -7 -17 0 -6 5 -5 12 2 6 6 9 14 7 17 -3 3
-9 2 -12 -2z"/>
<path d="M8666 9717 c3 -10 9 -15 12 -12 3 3 0 11 -7 18 -10 9 -11 8 -5 -6z"/>
<path d="M10905 9680 c-4 -12 -5 -24 -2 -27 3 -2 8 5 12 17 4 12 5 24 2 27 -3
2 -8 -5 -12 -17z"/>
<path d="M10934 9665 c-6 -19 -8 -35 -4 -35 12 0 31 53 23 61 -5 5 -13 -7 -19
-26z"/>
<path d="M8681 9685 c0 -18 28 -61 29 -44 0 8 -7 24 -15 35 -8 10 -14 15 -14
9z"/>
<path d="M10893 9585 c-13 -19 -23 -43 -22 -52 0 -14 2 -15 6 -3 4 8 17 32 30
53 13 20 20 37 16 37 -5 0 -18 -16 -30 -35z"/>
<path d="M8781 9594 c0 -11 3 -14 6 -6 3 7 2 16 -1 19 -3 4 -6 -2 -5 -13z"/>
<path d="M10187 9586 c-4 -10 -7 -25 -6 -34 0 -11 4 -9 10 7 5 13 8 29 6 35
-2 5 -6 2 -10 -8z"/>
<path d="M10850 9574 c0 -8 5 -12 10 -9 6 3 10 10 10 16 0 5 -4 9 -10 9 -5 0
-10 -7 -10 -16z"/>
<path d="M8741 9560 c0 -14 28 -72 29 -59 0 4 -7 22 -15 40 -8 19 -14 27 -14
19z"/>
<path d="M10830 9554 c0 -17 17 -36 24 -26 3 5 -1 15 -9 22 -8 7 -15 9 -15 4z"/>
<path d="M10805 9541 c4 -7 2 -17 -5 -21 -9 -5 -9 -9 -1 -14 6 -4 11 -1 12 6
0 7 4 1 9 -14 10 -35 -17 -98 -42 -98 -24 0 -23 21 2 27 19 5 37 39 26 50 -3
4 -6 1 -6 -6 0 -7 -4 -9 -10 -6 -5 3 -10 15 -10 26 0 10 -4 19 -10 19 -14 0
-12 -12 5 -36 8 -12 12 -24 9 -27 -8 -8 -44 4 -44 15 0 5 4 7 9 4 5 -4 6 4 3
16 -5 19 -7 20 -10 6 -2 -10 -8 -18 -13 -18 -5 0 -9 8 -10 18 0 10 -3 12 -6 5
-2 -7 -20 -13 -39 -13 -31 0 -34 -3 -34 -30 0 -28 -2 -30 -40 -30 -33 0 -40 3
-40 20 0 17 -7 20 -40 20 -33 0 -40 -3 -40 -20 0 -17 -7 -20 -40 -20 l-39 0
-3 -57 -3 -58 -37 -3 c-29 -2 -38 -8 -41 -25 l-4 -22 -8 23 c-9 27 -35 29 -35
3 0 -18 -33 -35 -44 -23 -3 3 -6 35 -7 71 -1 59 -2 62 -10 33 -6 -21 -6 -50 0
-80 6 -26 12 -60 15 -77 5 -28 5 -28 -4 -5 -8 21 -9 18 -5 -15 3 -22 10 -107
15 -190 6 -82 17 -221 25 -308 8 -86 15 -167 15 -179 0 -32 7 -22 110 157 147
253 141 241 127 273 -6 15 -16 30 -22 34 -6 5 -5 8 2 8 7 0 19 -15 26 -32 l13
-33 40 70 c21 38 44 77 49 87 49 82 74 132 68 141 -3 6 -1 7 5 3 7 -4 12 -1
12 8 0 9 4 16 9 16 5 0 7 10 5 23 -2 12 -1 16 2 8 8 -16 66 78 59 96 -2 7 0
12 6 10 11 -2 82 123 74 131 -3 3 -5 2 -5 -2 0 -4 -12 6 -26 21 -14 15 -22 22
-19 14z m-68 -117 c-9 -9 -27 6 -27 22 0 13 2 13 16 -1 9 -9 14 -18 11 -21z
m11 -101 c-11 -18 -21 -33 -22 -33 -1 0 -2 9 -3 20 -1 11 2 18 7 15 4 -3 11 2
14 11 11 27 7 37 -9 24 -18 -15 -20 -5 -3 14 11 11 15 11 24 -2 9 -12 7 -23
-8 -49z m-91 -45 c-3 -8 -6 -5 -6 6 -1 11 2 17 5 13 3 -3 4 -12 1 -19z m43 18
c0 -3 -4 -8 -10 -11 -5 -3 -10 -1 -10 4 0 6 5 11 10 11 6 0 10 -2 10 -4z m-14
-63 c-10 -10 -19 5 -10 18 6 11 8 11 12 0 2 -7 1 -15 -2 -18z m-30 -20 c-10
-10 -19 5 -10 18 6 11 8 11 12 0 2 -7 1 -15 -2 -18z m9 -32 c-3 -6 -11 -11
-17 -11 -6 0 -6 6 2 15 14 17 26 13 15 -4z m-428 -63 c-3 -8 -6 -5 -6 6 -1 11
2 17 5 13 3 -3 4 -12 1 -19z m341 8 c-7 -8 -15 -12 -17 -11 -5 6 10 25 20 25
5 0 4 -6 -3 -14z m50 -11 c-3 -3 -9 2 -12 12 -6 14 -5 15 5 6 7 -7 10 -15 7
-18z m-44 -20 c-9 -14 -19 -23 -22 -20 -5 4 26 45 35 45 2 0 -4 -11 -13 -25z
m16 -35 c0 -5 -2 -10 -4 -10 -3 0 -8 5 -11 10 -3 6 -1 10 4 10 6 0 11 -4 11
-10z m-60 -100 c0 -5 -5 -10 -11 -10 -5 0 -7 5 -4 10 3 6 8 10 11 10 2 0 4 -4
4 -10z m-187 -315 c-3 -9 -8 -14 -10 -11 -3 3 -2 9 2 15 9 16 15 13 8 -4z"/>
<path d="M10196 9525 c-3 -9 -6 -24 -5 -33 0 -9 5 -4 10 12 9 32 6 48 -5 21z"/>
<path d="M10220 9494 c0 -16 5 -36 10 -44 6 -10 7 -2 3 25 -7 49 -13 58 -13
19z"/>
<path d="M8776 9494 c-9 -24 -2 -26 12 -4 7 11 8 20 3 20 -5 0 -12 -7 -15 -16z"/>
<path d="M10196 9434 c-4 -9 -4 -19 -1 -22 2 -3 7 3 11 12 4 9 4 19 1 22 -2 3
-7 -3 -11 -12z"/>
<path d="M8845 9410 c3 -5 8 -10 11 -10 2 0 4 5 4 10 0 6 -5 10 -11 10 -5 0
-7 -4 -4 -10z"/>
<path d="M8821 9385 c0 -11 8 -36 19 -55 25 -45 25 -37 0 25 -10 28 -19 41
-19 30z"/>
<path d="M10233 9330 c0 -41 2 -58 4 -37 2 20 2 54 0 75 -2 20 -4 3 -4 -38z"/>
<path d="M8856 9375 c-3 -8 -1 -15 4 -15 6 0 10 7 10 15 0 8 -2 15 -4 15 -2 0
-6 -7 -10 -15z"/>
<path d="M8866 9295 c-9 -26 -7 -32 5 -12 6 10 9 21 6 23 -2 3 -7 -2 -11 -11z"/>
<path d="M8900 9198 c0 -3 13 -34 29 -68 26 -54 30 -58 29 -32 -1 17 -5 29
-11 25 -5 -3 -7 4 -3 18 3 13 3 18 0 10 -5 -10 -12 -4 -25 20 -10 19 -18 31
-19 27z"/>
<path d="M8981 9024 c0 -11 3 -14 6 -6 3 7 2 16 -1 19 -3 4 -6 -2 -5 -13z"/>
<path d="M9292 9010 c0 -14 2 -19 5 -12 2 6 2 18 0 25 -3 6 -5 1 -5 -13z"/>
<path d="M9005 8963 c20 -47 22 -49 30 -23 4 12 2 27 -3 32 -8 8 -9 4 -6 -13
3 -18 0 -15 -11 9 -21 44 -29 41 -10 -5z"/>
<path d="M9030 8906 c0 -5 56 -127 105 -229 15 -33 24 -43 28 -32 4 8 3 15 -2
15 -9 0 -37 60 -33 73 1 4 -3 7 -9 7 -6 0 -8 7 -5 16 3 8 2 13 -2 10 -5 -3
-13 8 -19 25 -6 16 -7 29 -2 29 5 0 9 5 9 11 0 8 -4 9 -13 0 -11 -9 -17 -2
-27 30 -11 34 -30 62 -30 45z"/>
<path d="M9075 8870 c3 -5 8 -10 11 -10 2 0 4 5 4 10 0 6 -5 10 -11 10 -5 0
-7 -4 -4 -10z"/>
<path d="M9105 8869 c-4 -6 -5 -12 -2 -15 2 -3 7 2 10 11 7 17 1 20 -8 4z"/>
<path d="M9252 8830 c0 -14 2 -19 5 -12 2 6 2 18 0 25 -3 6 -5 1 -5 -13z"/>
<path d="M9111 8824 c0 -11 3 -14 6 -6 3 7 2 16 -1 19 -3 4 -6 -2 -5 -13z"/>
<path d="M9241 8774 c0 -11 3 -14 6 -6 3 7 2 16 -1 19 -3 4 -6 -2 -5 -13z"/>
<path d="M9222 8740 c0 -14 2 -19 5 -12 2 6 2 18 0 25 -3 6 -5 1 -5 -13z"/>
<path d="M9191 8704 c0 -11 3 -14 6 -6 3 7 2 16 -1 19 -3 4 -6 -2 -5 -13z"/>
<path d="M9225 8681 c-3 -12 -10 -19 -15 -16 -5 3 -18 -7 -29 -21 -24 -31 -28
-53 -6 -30 8 8 15 19 15 25 0 13 28 3 33 -12 2 -7 3 -3 1 7 -2 11 2 28 7 38 6
11 8 22 6 25 -3 2 -8 -5 -12 -16z"/>
<path d="M9191 8597 c-1 -11 -6 -15 -13 -11 -7 5 -8 3 -3 -5 10 -16 29 2 22
21 -4 8 -6 7 -6 -5z"/>
<path d="M9211 8574 c0 -11 3 -14 6 -6 3 7 2 16 -1 19 -3 4 -6 -2 -5 -13z"/>
<path d="M9190 8553 c0 -4 5 -15 10 -23 8 -13 10 -13 10 2 0 9 -4 20 -10 23
-5 3 -10 3 -10 -2z"/>
<path d="M2775 7769 c-335 -49 -604 -209 -766 -457 -100 -152 -142 -307 -143
-527 -2 -464 197 -732 639 -860 50 -14 215 -44 369 -66 153 -22 296 -46 318
-53 64 -23 108 -58 136 -111 36 -67 38 -188 5 -250 -67 -126 -203 -172 -478
-162 -261 9 -457 63 -583 161 -33 25 -64 46 -68 46 -5 0 -117 -109 -251 -242
l-243 -242 28 -29 c43 -47 195 -162 264 -200 136 -76 309 -130 528 -164 87
-13 173 -18 355 -17 211 0 253 3 343 22 290 63 462 150 627 317 205 206 286
451 256 776 -14 158 -39 259 -89 364 -73 152 -185 259 -357 341 -136 64 -243
91 -550 135 -322 46 -334 48 -397 88 -101 64 -135 176 -86 283 32 70 78 114
158 152 63 30 69 31 235 34 134 3 185 0 235 -13 113 -28 193 -64 260 -114 l65
-50 242 242 243 242 -47 40 c-208 180 -413 269 -711 310 -123 16 -434 19 -537
4z"/>
<path d="M4660 7415 l0 -345 385 0 385 0 0 -1225 0 -1225 390 0 390 0 0 1223
0 1222 385 3 385 2 0 345 0 345 -1160 0 -1160 0 0 -345z"/>
<path d="M8205 7748 c-8 -23 -229 -631 -535 -1473 -166 -456 -369 -1014 -451
-1240 -82 -225 -149 -412 -149 -415 0 -3 181 -4 402 -3 l403 3 75 225 75 225
487 0 486 0 21 -62 c11 -35 43 -136 71 -225 39 -127 55 -163 68 -163 164 -2
777 2 780 5 6 6 27 -52 -593 1652 l-540 1483 -298 0 c-229 0 -299 -3 -302 -12z
m335 -1210 c0 -6 70 -233 155 -503 85 -271 155 -498 155 -505 0 -8 -11 -5 -32
9 -87 57 -297 181 -306 181 -6 0 -81 -43 -168 -95 -86 -52 -159 -94 -161 -92
-2 2 61 195 140 428 79 233 156 461 171 507 15 45 32 82 37 82 5 0 9 -5 9 -12z"/>
<path d="M10490 6191 l0 -1571 385 0 385 0 2 583 3 582 126 3 126 3 40 -83
c21 -46 147 -309 278 -585 l239 -503 449 0 448 0 -59 113 c-33 61 -103 198
-157 302 -54 105 -110 213 -125 240 -15 28 -80 154 -145 280 -65 127 -133 257
-151 291 -19 33 -34 65 -34 71 0 5 42 37 93 70 215 143 347 335 393 571 19 98
18 290 -2 393 -66 350 -319 635 -664 747 -170 56 -152 55 -917 59 l-713 4 0
-1570z m1380 833 c107 -60 166 -171 158 -298 -8 -120 -75 -218 -183 -268 -48
-22 -63 -23 -317 -26 l-268 -3 0 314 c0 172 2 316 4 318 2 2 127 2 278 -1
l273 -5 55 -31z"/>
<path d="M1717 3673 c-4 -3 -7 -21 -7 -40 l0 -33 5631 0 5630 0 -3 38 -3 37
-5621 3 c-3091 1 -5624 -1 -5627 -5z"/>
<path d="M6470 2576 c-78 -21 -143 -59 -206 -121 -103 -102 -123 -187 -124
-515 0 -258 11 -355 50 -436 50 -102 158 -188 275 -218 256 -67 515 87 555
331 16 94 12 566 -5 645 -41 194 -221 330 -435 327 -36 0 -85 -6 -110 -13z
m247 -98 c79 -29 163 -113 189 -188 17 -49 19 -86 19 -360 0 -364 -3 -380 -94
-471 -78 -78 -145 -102 -263 -97 -106 5 -180 39 -240 109 -70 83 -80 132 -86
394 -5 249 6 380 38 451 32 73 122 148 210 175 53 16 168 10 227 -13z"/>
<path d="M4820 1930 l0 -650 50 0 50 0 0 305 0 305 340 0 340 0 0 -305 0 -305
50 0 50 0 0 650 0 650 -50 0 -50 0 0 -300 0 -300 -340 0 -340 0 0 300 0 300
-50 0 -50 0 0 -650z"/>
<path d="M7292 2538 l3 -43 193 -3 192 -2 0 -605 0 -605 50 0 50 0 0 605 0
605 193 2 192 3 3 43 3 42 -441 0 -441 0 3 -42z"/>
<path d="M8517 2573 c-4 -3 -7 -296 -7 -650 l0 -643 395 0 395 0 0 45 0 45
-345 0 -345 0 0 260 0 260 295 0 295 0 0 45 0 45 -295 0 -295 0 0 255 0 255
345 0 345 0 0 45 0 45 -388 0 c-214 0 -392 -3 -395 -7z"/>
<path d="M9700 1930 l0 -650 395 0 395 0 0 45 0 45 -345 0 -345 0 0 605 0 605
-50 0 -50 0 0 -650z"/>
</g>
</svg>
